<?xml version="1.0" encoding="UTF-8" standalone="no"?>
<!-- 2019-11-28 22:43:25 Generated by QCAD 3.23.0 SVG Exporter -->

<svg
   xmlns:dc="http://purl.org/dc/elements/1.1/"
   xmlns:cc="http://creativecommons.org/ns#"
   xmlns:rdf="http://www.w3.org/1999/02/22-rdf-syntax-ns#"
   xmlns:svg="http://www.w3.org/2000/svg"
   xmlns="http://www.w3.org/2000/svg"
   xmlns:sodipodi="http://sodipodi.sourceforge.net/DTD/sodipodi-0.dtd"
   xmlns:inkscape="http://www.inkscape.org/namespaces/inkscape"
   width="4.4in"
   height="7.2944in"
   viewBox="-2.2 -3.1194 4.4 7.2944"
   version="1.1"
   style="stroke-linecap:round;stroke-linejoin:round;fill:none"
   id="svg636"
   sodipodi:docname="PhonoMug 2019-11-28_02.svg"
   inkscape:version="0.92.4 (5da689c313, 2019-01-14)">
  <metadata
     id="metadata642">
    <rdf:RDF>
      <cc:Work
         rdf:about="">
        <dc:format>image/svg+xml</dc:format>
        <dc:type
           rdf:resource="http://purl.org/dc/dcmitype/StillImage" />
      </cc:Work>
    </rdf:RDF>
  </metadata>
  <defs
     id="defs640" />
  <sodipodi:namedview
     pagecolor="#ffffff"
     bordercolor="#666666"
     borderopacity="1"
     objecttolerance="10"
     gridtolerance="10"
     guidetolerance="10"
     inkscape:pageopacity="0"
     inkscape:pageshadow="2"
     inkscape:window-width="1920"
     inkscape:window-height="986"
     id="namedview638"
     showgrid="false"
     inkscape:zoom="1.0895915"
     inkscape:cx="211.2"
     inkscape:cy="350.13121"
     inkscape:window-x="-11"
     inkscape:window-y="-11"
     inkscape:window-maximized="1"
     inkscape:current-layer="svg636" />
  <circle
     id="circle374"
     style="stroke:#ff0000;stroke-width:0.0098"
     r="2.2"
     cy="0"
     cx="0"
     transform="scale(1,-1)" />
  <path
     inkscape:connector-curvature="0"
     id="path376"
     style="stroke:#ffff00;stroke-width:0.0098"
     d="m 1.9695,-0.1571 a 4.6,4.6 0 0 0 -3.939,0" />
  <path
     inkscape:connector-curvature="0"
     id="path378"
     style="stroke:#ffff00;stroke-width:0.0098"
     d="m 2.1389,-0.5147 a 4.9958,4.9958 0 0 0 -4.2778,0" />
  <path
     inkscape:connector-curvature="0"
     id="path380"
     style="stroke:#ff0000;stroke-width:0.0098"
     d="m 1.9695,-1.7806 a 4.6,4.6 0 0 0 -3.939,0" />
  <path
     inkscape:connector-curvature="0"
     id="path382"
     style="stroke:#ff0000;stroke-width:0.0098"
     d="m 1.9695,-2.2806 a 4.6,4.6 0 0 0 -3.939,0" />
  <circle
     id="circle384"
     style="stroke:#ff0000;stroke-width:0.0098"
     r="0.075000003"
     cy="0.43084374"
     cx="-1.8405043"
     transform="scale(1,-1)" />
  <circle
     id="circle386"
     style="stroke:#ff0000;stroke-width:0.0098"
     r="0.075000003"
     cy="-1.7"
     cx="-1"
     transform="scale(1,-1)" />
  <circle
     id="circle388"
     style="stroke:#ff0000;stroke-width:0.0098"
     r="0.075000003"
     cy="-1.7"
     cx="1"
     transform="scale(1,-1)" />
  <circle
     id="circle390"
     style="stroke:#ff0000;stroke-width:0.0098"
     r="0.075000003"
     cy="-1.7"
     cx="0"
     transform="scale(1,-1)" />
  <circle
     id="circle392"
     style="stroke:#ff0000;stroke-width:0.0098"
     r="0.075000003"
     cy="-2.7"
     cx="-1"
     transform="scale(1,-1)" />
  <path
     inkscape:connector-curvature="0"
     id="path394"
     style="stroke:#ff0000;stroke-width:0.0098"
     d="m 2.1389,-2.1383 a 4.9958,4.9958 0 0 0 -4.2778,0" />
  <path
     inkscape:connector-curvature="0"
     id="path396"
     style="stroke:#ff0000;stroke-width:0.0098"
     d="m 2.1389,-2.6383 a 4.9958,4.9958 0 0 0 -4.2778,0" />
  <circle
     id="circle398"
     style="stroke:#ff0000;stroke-width:0.0098"
     r="0.075000003"
     cy="-3.675"
     cx="-1"
     transform="scale(1,-1)" />
  <circle
     id="circle400"
     style="stroke:#ff0000;stroke-width:0.0098"
     r="0.075000003"
     cy="-2.7"
     cx="1"
     transform="scale(1,-1)" />
  <circle
     id="circle402"
     style="stroke:#ff0000;stroke-width:0.0098"
     r="0.075000003"
     cy="-3.675"
     cx="1"
     transform="scale(1,-1)" />
  <circle
     id="circle404"
     style="stroke:#ff0000;stroke-width:0.0098"
     r="0.075000003"
     cy="-2.7"
     cx="1e-16"
     transform="scale(1,-1)" />
  <circle
     id="circle406"
     style="stroke:#ff0000;stroke-width:0.0098"
     r="0.075000003"
     cy="-3.675"
     cx="-5.8000001e-15"
     transform="scale(1,-1)" />
  <circle
     id="circle408"
     style="stroke:#ff0000;stroke-width:0.0098"
     r="0.075000003"
     cy="0.79789877"
     cx="-2e-16"
     transform="scale(1,-1)" />
  <circle
     id="circle410"
     style="stroke:#ff0000;stroke-width:0.0098"
     r="0.075000003"
     cy="0.43084374"
     cx="1.8405043"
     transform="scale(1,-1)" />
  <path
     inkscape:connector-curvature="0"
     id="path412"
     style="stroke:#ffff00;stroke-width:0.0098"
     d="M 2.1389,-0.5147 1.9695,-0.1571" />
  <path
     inkscape:connector-curvature="0"
     id="path414"
     style="stroke:#ffff00;stroke-width:0.0098"
     d="m -2.1389,-0.5147 0.1694,0.3576" />
  <path
     inkscape:connector-curvature="0"
     id="path416"
     style="stroke:#ffff00;stroke-width:0.0098"
     d="M -0.3585,3.1706 -0.5289,2.3013" />
  <circle
     id="circle418"
     style="stroke:#ff0000;stroke-width:0.0098"
     r="0.075000003"
     cy="2.0544133"
     cx="-1.8405043"
     transform="scale(1,-1)" />
  <circle
     id="circle420"
     style="stroke:#ff0000;stroke-width:0.0098"
     r="0.075000003"
     cy="2.5544133"
     cx="-1.8405043"
     transform="scale(1,-1)" />
  <path
     inkscape:connector-curvature="0"
     id="path422"
     style="stroke:#ffff00;stroke-width:0.0098"
     d="M -0.3585,4.1456 -0.5289,3.2763" />
  <path
     inkscape:connector-curvature="0"
     id="path424"
     style="stroke:#ffff00;stroke-width:0.0098"
     d="M 0.3585,3.1706 0.5289,2.3013" />
  <path
     inkscape:connector-curvature="0"
     id="path426"
     style="stroke:#ffff00;stroke-width:0.0098"
     d="M 0.3585,4.1456 0.5289,3.2763" />
  <path
     inkscape:connector-curvature="0"
     id="path428"
     style="stroke:#ffff00;stroke-width:0.0098"
     d="m -0.2683,2.2631 0.0911,0.9298" />
  <circle
     id="circle430"
     style="stroke:#ff0000;stroke-width:0.0098"
     r="0.075000003"
     cy="2.4214685"
     cx="3.0000001e-16"
     transform="scale(1,-1)" />
  <circle
     id="circle432"
     style="stroke:#ff0000;stroke-width:0.0098"
     r="0.075000003"
     cy="2.9214685"
     cx="3.0000001e-16"
     transform="scale(1,-1)" />
  <path
     inkscape:connector-curvature="0"
     id="path434"
     style="stroke:#ffff00;stroke-width:0.0098"
     d="m -0.2683,3.2381 0.0911,0.9298" />
  <path
     inkscape:connector-curvature="0"
     id="path436"
     style="stroke:#ffff00;stroke-width:0.0098"
     d="m -0.7846,2.3643 0.2275,0.764" />
  <path
     inkscape:connector-curvature="0"
     id="path438"
     style="stroke:#ffff00;stroke-width:0.0098"
     d="m -0.7846,3.3393 0.2275,0.764" />
  <path
     inkscape:connector-curvature="0"
     id="path440"
     style="stroke:#ffff00;stroke-width:0.0098"
     d="M 0.7846,2.3643 0.5571,3.1283" />
  <circle
     id="circle442"
     style="stroke:#ff0000;stroke-width:0.0098"
     r="0.075000003"
     cy="2.0544133"
     cx="1.8405043"
     transform="scale(1,-1)" />
  <circle
     id="circle444"
     style="stroke:#ff0000;stroke-width:0.0098"
     r="0.075000003"
     cy="2.5544133"
     cx="1.8405043"
     transform="scale(1,-1)" />
  <path
     inkscape:connector-curvature="0"
     id="path446"
     style="stroke:#ffff00;stroke-width:0.0098"
     d="M 0.7846,3.3393 0.5571,4.1033" />
  <path
     inkscape:connector-curvature="0"
     id="path448"
     style="stroke:#ffff00;stroke-width:0.0098"
     d="M 0.2683,2.2631 0.1772,3.1929" />
  <path
     inkscape:connector-curvature="0"
     id="path450"
     style="stroke:#ffff00;stroke-width:0.0098"
     d="M 0.2683,3.2381 0.1772,4.1679" />
  <circle
     id="circle452"
     style="stroke:#ff0000;stroke-width:0.0098"
     r="0.75"
     cy="-0.5"
     cx="0"
     transform="scale(1,-1)" />
  <path
     inkscape:connector-curvature="0"
     id="path454"
     style="stroke:#ff0000;stroke-width:0.0098"
     d="m 1.4441,2.6597 a 2.75,2.75 0 0 0 -2.8882,0" />
  <path
     inkscape:connector-curvature="0"
     id="path456"
     style="stroke:#ff0000;stroke-width:0.0098"
     d="m 1.4441,3.6347 a 2.75,2.75 0 0 0 -2.8882,0" />
  <path
     inkscape:connector-curvature="0"
     id="path458"
     style="stroke:#ff0000;stroke-width:0.0098"
     d="m -1.4441,2.6597 a 2.2,2.2 0 0 0 2.8882,0" />
  <path
     inkscape:connector-curvature="0"
     id="path460"
     style="stroke:#ff0000;stroke-width:0.0098"
     d="m -1.4441,3.6347 a 2.2,2.2 0 0 0 2.8882,0" />
  <path
     inkscape:connector-curvature="0"
     id="path462"
     style="stroke:#ff0000;stroke-width:0.0098"
     d="M 2.1389,-2.1383 1.9695,-1.7806" />
  <path
     inkscape:connector-curvature="0"
     id="path464"
     style="stroke:#ff0000;stroke-width:0.0098"
     d="M 2.1389,-2.6383 1.9695,-2.2806" />
  <path
     inkscape:connector-curvature="0"
     id="path466"
     style="stroke:#ff0000;stroke-width:0.0098"
     d="m -2.1389,-2.1383 0.1694,0.3577" />
  <path
     inkscape:connector-curvature="0"
     id="path468"
     style="stroke:#ff0000;stroke-width:0.0098"
     d="m -2.1389,-2.6383 0.1694,0.3577" />
  <path
     inkscape:connector-curvature="0"
     id="path470"
     style="stroke:#ffff00;stroke-width:0.0098"
     d="M -0.8846,-2.1377 -0.9608,-2.5261" />
  <path
     inkscape:connector-curvature="0"
     id="path472"
     style="stroke:#ffff00;stroke-width:0.0098"
     d="M -0.8846,-2.6377 -0.9608,-3.0261" />
  <path
     inkscape:connector-curvature="0"
     id="path474"
     style="stroke:#ffff00;stroke-width:0.0098"
     d="M 0.8846,-2.1377 0.9608,-2.5261" />
  <path
     inkscape:connector-curvature="0"
     id="path476"
     style="stroke:#ffff00;stroke-width:0.0098"
     d="M 0.8846,-2.6377 0.9608,-3.0261" />
  <path
     inkscape:connector-curvature="0"
     id="path478"
     style="stroke:#ffff00;stroke-width:0.0098"
     d="m -0.4874,-2.5955 0.0386,0.3939" />
  <path
     inkscape:connector-curvature="0"
     id="path480"
     style="stroke:#ffff00;stroke-width:0.0098"
     d="m -0.4874,-3.0955 0.0386,0.3939" />
  <path
     inkscape:connector-curvature="0"
     id="path482"
     style="stroke:#ffff00;stroke-width:0.0098"
     d="m -1.4253,-2.4117 0.1129,0.3793" />
  <path
     inkscape:connector-curvature="0"
     id="path484"
     style="stroke:#ffff00;stroke-width:0.0098"
     d="m -1.4253,-2.9117 0.1129,0.3793" />
  <path
     inkscape:connector-curvature="0"
     id="path486"
     style="stroke:#ffff00;stroke-width:0.0098"
     d="M 1.4253,-2.4117 1.3124,-2.0324" />
  <path
     inkscape:connector-curvature="0"
     id="path488"
     style="stroke:#ffff00;stroke-width:0.0098"
     d="M 1.4253,-2.9117 1.3124,-2.5324" />
  <path
     inkscape:connector-curvature="0"
     id="path490"
     style="stroke:#ffff00;stroke-width:0.0098"
     d="M 0.4874,-2.5955 0.4488,-2.2016" />
  <path
     inkscape:connector-curvature="0"
     id="path492"
     style="stroke:#ffff00;stroke-width:0.0098"
     d="M 0.4874,-3.0955 0.4488,-2.7016" />
  <path
     inkscape:connector-curvature="0"
     id="path628"
     style="stroke:#000000;stroke-width:0"
     d="M -0.893,0.7907 0.1895,1.6575" />
  <path
     inkscape:connector-curvature="0"
     id="path630"
     style="stroke:#000000;stroke-width:0"
     d="m -1.67,-1.837 2.9384,0.2877" />
</svg>
